<?xml version="1.0" encoding="UTF-8"?><svg id="a" xmlns="http://www.w3.org/2000/svg" xmlns:xlink="http://www.w3.org/1999/xlink" viewBox="0 0 512 512"><defs><style>.c{fill:url(#b);}.c,.d{stroke-width:0px;}.d{fill:#ebebeb;}</style><linearGradient id="b" x1="256" y1="512" x2="256" y2="0" gradientUnits="userSpaceOnUse"><stop offset=".2" stop-color="#89181a"/><stop offset="1" stop-color="#d74e52"/></linearGradient></defs><rect class="c" width="512" height="512" rx="64" ry="64"/><path class="d" d="M148.52,184.6c1.06,0,1.96.36,2.68,1.09.72.72,1.09,1.57,1.09,2.54v16.22c0,1.06-.36,1.93-1.09,2.61-.72.68-1.62,1.01-2.68,1.01h-33.61c2.12,0,4.03.77,5.72,2.32,1.69,1.55,2.54,3.28,2.54,5.21v66.35c0,1.06-.39,1.88-1.16,2.46-.68.68-1.55,1.01-2.61,1.01h-20.14c-1.06,0-1.93-.34-2.61-1.01-.77-.58-1.16-1.4-1.16-2.46v-69.53c0-1.35-.43-2.41-1.3-3.19-.87-.77-1.88-1.16-3.04-1.16h-21c-.97,0-1.84-.34-2.61-1.01-.77-.67-1.16-1.54-1.16-2.61v-7.39c0-1.83.36-3.52,1.09-5.07.72-1.54,1.69-2.87,2.9-3.98,1.21-1.11,2.56-1.96,4.06-2.54,1.5-.58,3.02-.87,4.56-.87h69.53Z"/><path class="d" d="M165.17,282.09v-84.74c0-3.67,1.25-6.69,3.77-9.05,2.51-2.37,5.46-3.55,8.84-3.55h59.1c1.06,0,1.96.36,2.68,1.09.72.72,1.09,1.62,1.09,2.68v14.34c0,1.06-.34,1.88-1.01,2.46-.68.68-1.59,1.01-2.75,1.01h-53.45c2.32,0,4.22.82,5.72,2.46,1.5,1.64,2.25,3.43,2.25,5.36v6.08c0,1.06.36,2.08,1.09,3.04.72.97,1.81,1.45,3.26,1.45h31.58c1.06,0,1.96.36,2.68,1.09.72.72,1.09,1.62,1.09,2.68v13.04c0,1.06-.36,1.96-1.09,2.68-.72.72-1.62,1.09-2.68,1.09h-43.89c2.22,0,4.1.77,5.65,2.32,1.54,1.55,2.32,3.28,2.32,5.21v6.81c0,1.06.38,2.08,1.16,3.04.77.97,1.83,1.45,3.19,1.45h42.3c2.51,0,3.77,1.26,3.77,3.77v14.2c0,1.16-.36,2.05-1.09,2.68-.72.63-1.62.94-2.68.94h-69.24c-.97,0-1.81-.36-2.53-1.09-.72-.72-1.09-1.57-1.09-2.54Z"/><path class="d" d="M258.03,282.38v-84.74c0-3.67,1.28-6.69,3.84-9.05,2.56-2.37,5.48-3.55,8.76-3.55h28.97c6.47,0,12.43.75,17.89,2.25,5.46,1.5,10.21,3.86,14.27,7.1,4.06,3.24,7.24,7.34,9.56,12.31,2.32,4.98,3.57,10.89,3.77,17.75.1,1.35.15,2.97.15,4.85v12.39c0,1.84-.05,3.43-.15,4.78-.87,26.37-15.79,39.55-44.76,39.55h-38.68c-1.06,0-1.93-.34-2.61-1.01-.68-.67-1.01-1.54-1.01-2.61ZM299.6,264.42c6.28,0,10.81-1.52,13.62-4.56,2.8-3.04,4.25-7.6,4.35-13.69.1-1.35.17-2.92.22-4.71.05-1.79.07-3.79.07-6.01s-.03-4.22-.07-6.01c-.05-1.79-.12-3.35-.22-4.71-.29-12.07-6.52-18.11-18.69-18.11h-21.73c2.22,0,4.1.8,5.65,2.39,1.54,1.59,2.32,3.31,2.32,5.14v45.78c0,1.26.41,2.32,1.23,3.19.82.87,1.91,1.3,3.26,1.3h10Z"/><path class="d" d="M444.46,255.29c0,5.89-1.38,10.86-4.13,14.92-2.75,4.06-6.25,7.34-10.5,9.85-4.25,2.51-8.98,4.32-14.2,5.43s-10.29,1.67-15.21,1.67-9.63-.48-14.7-1.45c-5.07-.96-9.73-2.58-13.98-4.85-4.25-2.27-7.8-5.26-10.65-8.98-2.85-3.72-4.42-8.33-4.71-13.83,0-.87.31-1.59.94-2.17.63-.58,1.38-.87,2.25-.87h19.27c.58,0,1.09.05,1.52.15.43.1.84.24,1.23.43.67.39,1.5,1.06,2.46,2.03,1.54,3.09,3.84,5.19,6.88,6.3,3.04,1.11,6.2,1.67,9.49,1.67,1.45,0,3.11-.1,5-.29,1.88-.19,3.62-.6,5.21-1.23,1.59-.63,2.97-1.54,4.13-2.75,1.16-1.21,1.74-2.78,1.74-4.71,0-2.61-.97-4.49-2.9-5.65-1.93-1.16-3.96-2.08-6.08-2.75-1.64-.58-3.6-1.13-5.87-1.67-2.27-.53-4.9-1.09-7.9-1.67-4.44-.87-8.74-2-12.89-3.4-4.15-1.4-7.85-3.26-11.08-5.58-3.24-2.32-5.84-5.24-7.82-8.76-1.98-3.52-2.97-7.84-2.97-12.96,0-6.37,1.76-11.85,5.29-16.44,3.52-4.59,8.13-8.09,13.83-10.5,6.18-2.51,13.28-3.77,21.29-3.77,3.19,0,6.49.27,9.92.8,3.43.53,6.76,1.4,10,2.61,3.23,1.21,6.25,2.8,9.05,4.78,2.8,1.98,5.21,4.37,7.24,7.17,3.28,4.25,5.07,8.55,5.36,12.89,0,.77-.31,1.5-.94,2.17-.63.68-1.33,1.01-2.1,1.01h-20.28c-2.03,0-3.62-.87-4.78-2.61-.58-2.03-2.08-3.77-4.49-5.21-2.61-1.35-5.6-2.03-8.98-2.03-1.45,0-2.92.1-4.42.29-1.5.19-2.87.63-4.13,1.3-1.26.68-2.27,1.57-3.04,2.68-.77,1.11-1.16,2.53-1.16,4.27,0,2.71,1.45,4.88,4.35,6.52,2.9,1.55,8.3,3.14,16.22,4.78,4.54.87,9.05,1.91,13.54,3.11,4.49,1.21,8.47,2.92,11.95,5.14,3.48,2.22,6.3,5.1,8.47,8.62,2.17,3.53,3.26,8.04,3.26,13.54Z"/></svg>